<svg width="30" height="30" viewBox="0 0 30 30" fill="none" xmlns="http://www.w3.org/2000/svg">
<circle cx="15" cy="15" r="15" fill="#282D36"/>
<path d="M16.7426 18.3384C14.7835 19.4671 12.9095 20.3615 11.291 20.9577C12.3772 21.6391 13.6336 22.0651 15.0177 22.0651C18.7657 22.0651 21.8109 19.0412 21.8109 15.2719C21.8109 15.1442 21.8109 15.0164 21.7897 14.8887C20.4693 15.9959 18.7231 17.2098 16.7427 18.3385L16.7426 18.3384Z" fill="#717680"/>
<path d="M23.9633 10.161C23.6226 9.56475 22.1958 9.67126 20.194 10.3314C21.5143 10.2888 23.0263 10.4592 21.0457 12.2054C19.9171 10.012 17.6598 8.5 15.0404 8.5C11.2925 8.5 8.24722 11.5239 8.24722 15.2932C8.24722 16.6988 8.71571 17.9978 9.43972 19.1051C6.8629 20.1486 7.20367 19.1051 8.0556 17.4014C6.4586 18.8283 5.75596 19.8719 6.07535 20.4682C6.71425 21.5968 11.2714 20.2127 16.1907 17.359C21.1738 14.5054 24.6449 11.2898 23.9635 10.1611L23.9633 10.161Z" fill="#717680"/>
</svg>
